<svg xmlns="http://www.w3.org/2000/svg" width="73" height="77" viewBox="0 0 73 77">
    <g fill="none">
        <path fill="#7CB777" d="M57.835 1.12c-1.315.262-2.316 1.39-2.344 2.726-.022 1.054-.744 1.762-3.751-.073-.756-.461-1.68-.565-2.515-.269-5.28 1.874-10.276 4.416-14.89 7.419-1.656 1.079-2.523 3.05-2.114 4.982.4 1.888-.248 2.596-3.222 1.693-1.638-.498-3.418-.08-4.684 1.07-4.557 4.139-8.507 8.675-11.698 13.295-.739 1.07-.717 2.502.097 3.517 1.154 1.438 2.106 3.603-1.012 4.93-.627.266-1.188.327-1.688.23-1.35-.259-2.7.483-3.242 1.742C4.001 48.82 2.962 54.953 4.076 59.9c.765 3.395 3.068 6.49 6.365 7.336 7.117 1.827 13.84.377 20.049-3.136 1.107-.626 1.836-1.773 1.867-3.042.048-1.99 1.863-2.109 3.226-1.914 1.063.151 2.137-.187 2.936-.901 3.466-3.1 6.726-6.757 9.754-10.705.972-1.267.93-3.005-.03-4.28-1.57-2.085-.462-4.666 3.19-4.024 1.44.254 2.89-.377 3.66-1.616 2.99-4.808 5.655-9.711 7.953-14.319.46-.92.327-2.012-.301-2.827-1.644-2.133.466-2.941 1.986-3.24.847-.167 1.56-.732 1.915-1.517C70.719 6.686 72.952.14 72.952.14c-5.173-.37-10.234.004-15.117.98z"/>
        <path fill="#35925D" d="M65.868 5.754c-4.193 2.49-8.17 5.466-12.072 8.424-6.271 4.754-12.166 10.028-17.733 15.58-4.135 4.124-8.037 8.52-11.64 13.114-2.577 3.284-5.081 6.635-7.376 10.122-3.91 5.94-7.736 12.248-10.541 18.794l-1.69 3.746c-.565 1.252-2.04 1.81-3.294 1.247-1.255-.563-1.819-2.025-1.254-3.276l1.701-3.81C4.908 63.113 8.646 56.8 12.684 50.837c2.518-3.717 5.26-7.37 8.118-10.875 3.805-4.654 7.904-9.093 12.266-13.232 5.908-5.605 12.13-10.866 18.868-15.457 4.102-2.795 8.336-5.462 12.82-7.607.59-.283 1.3-.035 1.583.554.266.553.063 1.208-.45 1.521l-.02.012z"/>
    </g>
</svg>
