<svg xmlns="http://www.w3.org/2000/svg" width="55" height="51" viewBox="0 0 55 51">
    <g fill="#7CB777">
        <path d="M13.969 40.014c-.275-2.852-1.654-4.94-3.054-7.08-2.768-4.18-5.699-8.607.916-19.944.24-.432.067-.967-.386-1.197-.45-.238-1.017-.084-1.267.343v.001c-7.155 12.248-3.919 17.125-.866 21.74 1.298 1.938 2.545 3.875 2.8 6.297.046.488.499.848 1.012.804.513-.044.891-.476.845-.964zM36.45 13.023c-.296.776-.714 1.505-1.24 2.16-.929 1.19-2.277 2.02-3.797 2.34-1.618.334-3.562.126-5.78-.828-3.212-1.38-6.952-4.277-11.064-9.26 2.34-.228 6.498-.945 9.598-3.187 2.62-1.899 4.986-2.596 6.946-2.422.841.064 1.658.304 2.391.702.724.4 1.356.933 1.858 1.57.805 1.043 1.338 2.253 1.557 3.53.664.12 1.318.28 1.96.485-.18-1.848-.884-3.614-2.036-5.11-.657-.828-1.483-1.522-2.428-2.039-.972-.528-2.054-.846-3.17-.93-2.392-.189-5.2.61-8.229 2.804-3.796 2.746-9.51 2.906-10.213 2.906-.516-.032-.961.34-.995.831-.015.21.05.419.181.588 4.763 6.06 9.124 9.517 12.87 11.14 2.615 1.118 4.95 1.356 6.94.968 1.96-.41 3.698-1.482 4.89-3.017.627-.789 1.126-1.662 1.482-2.591l-.148-.068c-.506-.232-1.032-.423-1.572-.572z"/>
        <path d="M49.956 20.69C42.374 8.665 36.318 8.887 30.594 9.1c-2.433.093-4.8.18-7.125-.842-.485-.162-1.016.082-1.186.544-.146.398.022.839.403 1.054 2.732 1.196 5.317 1.104 7.974 1.003 5.19-.175 10.686-.378 17.693 10.742.265.42.838.559 1.28.307.443-.251.588-.797.323-1.218zM20.559 33.999c-.285-2.712-1.242-4.756-2.611-6.194-1.348-1.41-3.186-2.307-5.175-2.528-1.03-.123-2.072-.099-3.094.072v.155c.044.54.136 1.074.275 1.598.851-.146 1.721-.169 2.58-.067 1.543.163 2.972.851 4.025 1.937 1.11 1.167 1.893 2.872 2.137 5.177.351 3.332-.412 7.86-2.88 13.764-1.38-1.82-4.112-4.891-7.7-6.325-3.053-1.215-4.86-2.809-5.694-4.5-.366-.717-.562-1.502-.575-2.3.004-.797.178-1.587.51-2.32.545-1.185 1.379-2.23 2.432-3.05-.215-.612-.385-1.237-.51-1.87-1.591 1.071-2.847 2.534-3.633 4.233-.425.95-.645 1.974-.646 3.007.005 1.066.256 2.118.738 3.08 1.018 2.069 3.16 3.987 6.661 5.386 4.672 1.86 7.776 6.95 7.806 7.003.254.426.823.575 1.27.333.18-.097.32-.248.4-.43C20.003 43.21 20.97 37.888 20.558 34zM47.053 32.35c-.296-.401-.878-.498-1.3-.216-2.458 1.652-3.664 3.836-4.906 6.079-2.422 4.358-4.981 9.003-18.604 9.201-.514.008-.924.412-.916.901.008.49.432.88.946.872 14.732-.232 17.557-5.327 20.228-10.17 1.13-2.04 2.234-4.035 4.326-5.43.421-.282.523-.836.226-1.237z"/>
        <path d="M54.085 24.744c-.173-.095-.373-.133-.572-.112l.026.025c-7.893.89-13.22 2.76-16.58 5.056-2.325 1.593-3.71 3.39-4.33 5.245-.608 1.814-.507 3.777.285 5.526.405.91.95 1.757 1.618 2.513l.133-.087c.469-.306.91-.65 1.318-1.026-.557-.626-1.012-1.328-1.349-2.083-.618-1.364-.696-2.896-.219-4.31.51-1.502 1.664-2.993 3.644-4.36 2.855-1.936 7.353-3.588 13.958-4.503-.961 2.048-2.391 5.812-1.898 9.502.417 3.114-.127 5.41-1.252 6.95-.478.66-1.103 1.213-1.832 1.617-.726.397-1.53.651-2.36.746-1.354.141-2.723-.025-3.995-.484-.447.484-.928.94-1.44 1.36 1.77.776 3.727 1.079 5.663.877 1.076-.125 2.114-.454 3.053-.968.968-.537 1.799-1.272 2.433-2.15 1.369-1.88 2.035-4.592 1.567-8.18-.641-4.795 2.468-9.924 2.478-9.939.257-.427.1-.971-.349-1.215z"/>
    </g>
</svg>
