<svg xmlns="http://www.w3.org/2000/svg" width="46" height="56" viewBox="0 0 46 56">
    <g fill="none">
        <path fill="#4FBA6F" d="M21.029 48.076c-2.639-1.59-6.854-1.542-10.515-3.758-4.779-2.89-6.69-9.634-6.69-17.342.066-3.319-1.335-6.496-3.824-8.67 2.731.289 5.372 1.152 7.752 2.533.568.334 1.266.35 1.848.042.582-.307.967-.894 1.02-1.554.917-11.513 5.63-15.473 5.63-15.473.28.586.6 1.153.955 1.695.187.268.497.422.821.408.325-.014.62-.193.785-.475 1.16-1.983 2.546-3.823 4.13-5.482 1.572 1.66 2.949 3.5 4.1 5.482.161.295.464.484.798.498.335.014.652-.15.836-.43.356-.543.676-1.11.956-1.696 0 0 4.712 3.96 5.592 15.473.052.66.437 1.247 1.02 1.554.581.307 1.28.292 1.847-.042 2.392-1.386 5.046-2.25 7.79-2.534-2.488 2.175-3.89 5.352-3.823 8.671 0 7.708-1.912 14.452-6.69 17.342-3.662 2.216-7.877 2.168-10.515 3.758h-3.823z"/>
        <path fill="#7ED09E" d="M24.852 44.318v9.635c0 1.064-.856 1.927-1.912 1.927s-1.911-.863-1.911-1.927v-9.635c0-.532.428-.963.955-.963h1.912c.528 0 .956.431.956.963z"/>
        <g fill="#24AE5F">
            <path d="M14.397 3.854c.528 0 .956-.432.956-.964V.963c0-.532-.428-.963-.956-.963-.527 0-.955.431-.955.963V2.89c0 .532.428.964.955.964zM28.391 25.271c-.195-.164-.447-.243-.7-.22-.253.024-.486.148-.648.345-3.07 3.243-7.25 5.186-11.69 5.434v-3.854c3.458-.293 6.722-1.733 9.281-4.094.375-.378.375-.99 0-1.368-.374-.378-.982-.378-1.357 0-2.194 2.009-4.973 3.249-7.924 3.535v-3.853c2.403-.353 4.641-1.44 6.414-3.112.375-.378.375-.99 0-1.368-.375-.378-.983-.378-1.357 0-1.413 1.3-3.17 2.16-5.057 2.476v-3.854c2.403-.353 4.641-1.439 6.414-3.112.375-.378.375-.99 0-1.368-.375-.378-.983-.378-1.357 0-1.404 1.328-3.161 2.215-5.057 2.553V9.557c1.679-.238 3.247-.98 4.502-2.129.375-.378.375-.99 0-1.368-.375-.378-.982-.378-1.357 0-.884.805-1.973 1.345-3.145 1.56v-.876c0-.532-.428-.963-.956-.963-.527 0-.955.431-.955.963v.877c-1.169-.226-2.255-.765-3.145-1.561-.375-.378-.983-.378-1.357 0-.375.378-.375.99 0 1.368 1.254 1.149 2.823 1.89 4.502 2.13v3.853c-1.893-.336-3.649-1.216-5.057-2.534-.375-.378-.982-.378-1.357 0s-.375.99 0 1.368c1.772 1.673 4.01 2.76 6.414 3.112v3.854c-1.893-.336-3.649-1.216-5.057-2.534-.375-.378-.982-.378-1.357 0s-.375.99 0 1.368c1.775 1.666 4.013 2.745 6.414 3.093v3.854c-2.949-.296-5.726-1.535-7.924-3.536-.375-.378-.983-.378-1.358 0-.374.378-.374.99 0 1.368 2.552 2.382 5.817 3.843 9.282 4.152v3.854c-4.435-.238-8.614-2.167-11.69-5.395-.219-.265-.561-.393-.898-.334-.337.058-.618.293-.736.616-.119.324-.057.686.162.951 3.425 3.691 8.152 5.878 13.162 6.089v.963c0 .533.428.964.955.964.528 0 .956-.431.956-.964v-.963c5.01-.211 9.737-2.398 13.162-6.089.175-.199.26-.461.237-.725-.023-.265-.154-.508-.361-.672z" transform="translate(8.543 5.78)"/>
        </g>
    </g>
</svg>
