<svg xmlns="http://www.w3.org/2000/svg" width="86" height="86" viewBox="0 0 86 86">
    <g fill="none">
        <path fill="#3D7606" d="M84.492 41.377L72.645 37.23c-4.728-1.655-9.923-1.323-14.402.919-4.479 2.242-7.858 6.203-9.366 10.979l-3.1 9.815-3.051 2.289V40.734c-.004-2.732 1.362-5.284 3.637-6.796l-1.58-2.37c-3.068 2.04-4.91 5.482-4.905 9.166v2.821l-1.842-1.841-2.013 2.014 3.855 3.854v31.282L37.03 77.44v-2.929c-.001-7.163-3.445-13.89-9.256-18.079-5.813-4.188-13.283-5.327-20.079-3.061L.98 55.609c-.585.193-.98.738-.98 1.353s.395 1.16.98 1.353l1.525.508c7.309 2.43 14.129 6.14 20.142 10.954l12.069 9.654c.08.057.17.105.262.143l-.01.018 4.91 2.457v3.392h2.848V64.793l5.125-3.845-.015-.02c.059-.034.115-.071.168-.112 9.018-8.989 20.762-14.733 33.393-16.333l2.801-.35c.656-.082 1.168-.605 1.239-1.262.07-.657-.322-1.276-.945-1.494z"/>
        <path fill="#5FA819" d="M54.785 12.06l-.667-10.724C54.075.662 53.565.11 52.895.015c-.667-.09-1.308.298-1.539.931l-4.605 12.89c-1.723 4.815-2.603 9.89-2.601 15.005v3.912c0 .575.347 1.095.878 1.315.532.22 1.145.098 1.552-.308 5.72-5.722 8.708-13.624 8.205-21.7zM21.27 18.877l-9.423-3.132c-.486-.163-1.023-.051-1.405.292-.38.345-.548.867-.436 1.368l1.567 7.066C14.08 36 24.313 44.202 36.11 44.145h.919c.786 0 1.424-.638 1.424-1.424.009-10.82-6.917-20.43-17.184-23.844z"/>
        <g fill="#589C17">
            <path d="M28.271 22.215c-5.456-3.358-9.93-8.097-12.968-13.738L10.813.133c-.622.268-.962.942-.807 1.6L11.573 8.8C14.078 20.332 24.31 28.538 36.11 28.481h.919c.324-.006.635-.123.882-.333l-9.64-5.933zM58.7 32.325c-3 2.142-5.372 5.049-6.87 8.418l-.658 1.48c8.548-7.327 19.056-11.988 30.225-13.406l2.713-.336H70.704c-4.304-.002-8.501 1.343-12.004 3.844zM36.352 64.622l-.029-.157C33.491 48.887 19.315 37.99 3.533 39.26l-.663.053-1.89.63c-.585.193-.98.738-.98 1.354 0 .615.395 1.16.98 1.352l1.525.51c7.309 2.43 14.129 6.139 20.142 10.954l12.069 9.654c.08.057.17.105.262.143l-.01.018 1.384.694z" transform="translate(0 15.664)"/>
        </g>
    </g>
</svg>
