<svg xmlns="http://www.w3.org/2000/svg" width="57" height="47" viewBox="0 0 57 47">
    <g fill="#C2D195">
        <path d="M57 7.833h-3.931V3.917h-3.931V0H7.862v3.917H3.931v3.916H0v31.334h3.931v3.916h3.931V47h41.276v-3.917h3.931v-3.916H57V7.833zM1.966 37.208V9.792H3.93v27.416H1.966zm3.93 3.917V5.875h1.966v35.25H5.897zm41.276 3.917H9.828V1.958h37.344v43.084zm3.931-3.917h-1.965V5.875h1.965v35.25zm3.931-3.917H53.07V9.792h1.965v27.416z"/>
        <circle cx="16.707" cy="8.813" r="1"/>
        <circle cx="13.759" cy="5.875" r="1"/>
        <circle cx="19.655" cy="5.875" r="1"/>
        <circle cx="13.759" cy="11.75" r="1"/>
        <circle cx="19.655" cy="11.75" r="1"/>
        <circle cx="22.603" cy="8.813" r="1"/>
        <circle cx="28.5" cy="8.813" r="1"/>
        <circle cx="25.552" cy="5.875" r="1"/>
        <circle cx="31.448" cy="5.875" r="1"/>
        <circle cx="25.552" cy="11.75" r="1"/>
        <circle cx="31.448" cy="11.75" r="1"/>
        <circle cx="34.397" cy="8.813" r="1"/>
        <circle cx="40.293" cy="8.813" r="1"/>
        <circle cx="37.345" cy="5.875" r="1"/>
        <circle cx="43.241" cy="5.875" r="1"/>
        <circle cx="37.345" cy="11.75" r="1"/>
        <circle cx="43.241" cy="11.75" r="1"/>
        <circle cx="16.707" cy="14.688" r="1"/>
        <circle cx="16.707" cy="20.563" r="1"/>
        <circle cx="13.759" cy="17.625" r="1"/>
        <circle cx="19.655" cy="17.625" r="1"/>
        <circle cx="13.759" cy="23.5" r="1"/>
        <circle cx="19.655" cy="23.5" r="1"/>
        <circle cx="22.603" cy="14.688" r="1"/>
        <circle cx="28.5" cy="14.688" r="1"/>
        <circle cx="22.603" cy="20.563" r="1"/>
        <circle cx="28.5" cy="20.563" r="1"/>
        <circle cx="25.552" cy="17.625" r="1"/>
        <circle cx="31.448" cy="17.625" r="1"/>
        <circle cx="25.552" cy="23.5" r="1"/>
        <circle cx="31.448" cy="23.5" r="1"/>
        <circle cx="34.397" cy="14.688" r="1"/>
        <circle cx="40.293" cy="14.688" r="1"/>
        <circle cx="34.397" cy="20.563" r="1"/>
        <circle cx="40.293" cy="20.563" r="1"/>
        <circle cx="37.345" cy="17.625" r="1"/>
        <circle cx="43.241" cy="17.625" r="1"/>
        <circle cx="37.345" cy="23.5" r="1"/>
        <circle cx="43.241" cy="23.5" r="1"/>
        <circle cx="16.707" cy="26.438" r="1"/>
        <circle cx="16.707" cy="32.313" r="1"/>
        <circle cx="13.759" cy="29.375" r="1"/>
        <circle cx="19.655" cy="29.375" r="1"/>
        <circle cx="13.759" cy="35.25" r="1"/>
        <circle cx="19.655" cy="35.25" r="1"/>
        <circle cx="22.603" cy="26.438" r="1"/>
        <circle cx="28.5" cy="26.438" r="1"/>
        <circle cx="22.603" cy="32.313" r="1"/>
        <circle cx="28.5" cy="32.313" r="1"/>
        <circle cx="25.552" cy="29.375" r="1"/>
        <circle cx="31.448" cy="29.375" r="1"/>
        <circle cx="25.552" cy="35.25" r="1"/>
        <circle cx="31.448" cy="35.25" r="1"/>
        <circle cx="34.397" cy="26.438" r="1"/>
        <circle cx="40.293" cy="26.438" r="1"/>
        <circle cx="34.397" cy="32.313" r="1"/>
        <circle cx="40.293" cy="32.313" r="1"/>
        <circle cx="37.345" cy="29.375" r="1"/>
        <circle cx="43.241" cy="29.375" r="1"/>
        <circle cx="37.345" cy="35.25" r="1"/>
        <circle cx="43.241" cy="35.25" r="1"/>
        <circle cx="16.707" cy="38.188" r="1"/>
        <circle cx="13.759" cy="41.125" r="1"/>
        <circle cx="19.655" cy="41.125" r="1"/>
        <circle cx="22.603" cy="38.188" r="1"/>
        <circle cx="28.5" cy="38.188" r="1"/>
        <circle cx="25.552" cy="41.125" r="1"/>
        <circle cx="31.448" cy="41.125" r="1"/>
        <circle cx="34.397" cy="38.188" r="1"/>
        <circle cx="40.293" cy="38.188" r="1"/>
        <circle cx="37.345" cy="41.125" r="1"/>
        <circle cx="43.241" cy="41.125" r="1"/>
    </g>
</svg>
