<svg xmlns="http://www.w3.org/2000/svg" width="44" height="54" viewBox="0 0 44 54">
    <g fill="none">
        <path fill="#68CCEA" d="M25.158 23.343c-.004-.01-.008-.021-.014-.032L13.301.156C13.25.06 13.154 0 13.047 0c-.107 0-.204.06-.253.156L.95 23.311l-.014.032c-1.248 3.39-1.12 7.07.36 10.362s4.136 5.802 7.478 7.068c1.369.518 2.804.804 4.265.85h.017c1.46-.046 2.895-.332 4.264-.85 3.342-1.266 5.998-3.776 7.478-7.068 1.48-3.292 1.608-6.972.36-10.362z"/>
        <g fill="#5ABCE2">
            <path d="M13.96 38.984c-2.838-2.838-4.418-6.628-4.447-10.671 0-.013 0-.026.002-.04L12.698.029.95 22.995l-.014.032c-1.248 3.39-1.12 7.07.36 10.362s4.136 5.802 7.478 7.068c1.369.519 2.804.805 4.265.85h.017c1.065-.033 2.116-.196 3.138-.481-.793-.535-1.54-1.15-2.234-1.842zM43.49 29.24l-.014-.032-5.84-11.417c-.049-.096-.147-.156-.253-.156-.107 0-.205.06-.254.156l-5.84 11.417-.014.032c-.629 1.708-.564 3.563.182 5.221.746 1.66 2.084 2.924 3.768 3.562.69.261 1.413.405 2.149.428h.017c.736-.023 1.46-.167 2.149-.428 3.476-1.317 5.248-5.257 3.95-8.783z" transform="translate(0 .316)"/>
        </g>
        <path fill="#68CCEA" d="M43.49 29.556l-.014-.032-5.84-11.417c-.049-.096-.147-.157-.253-.157h-.002l-2.299 13.56c-.002.013-.004.026-.004.04-.097 2.006.582 3.931 1.912 5.42.57.638 1.23 1.162 1.955 1.562.2-.055.4-.119.595-.193 3.476-1.317 5.248-5.257 3.95-8.783z"/>
        <path fill="#5ABCE2" d="M31.85 47.594l-3.892-7.607c-.049-.096-.147-.157-.253-.157-.107 0-.205.06-.254.157l-3.892 7.607-.014.032c-.883 2.4.323 5.081 2.689 5.977.469.178.96.276 1.462.292h.017c.5-.016.993-.114 1.462-.292 2.366-.896 3.572-3.577 2.688-5.977l-.014-.032z"/>
        <path fill="#68CCEA" d="M31.863 47.626l-.014-.032-3.89-7.607c-.05-.096-.148-.157-.254-.157-.03 0-.06.006-.088.016l-1.598 9.533-.004.04c-.083 1.803.745 3.44 2.073 4.448.37-.042.735-.13 1.087-.264 2.366-.896 3.572-3.577 2.688-5.977z"/>
    </g>
</svg>
