<svg xmlns="http://www.w3.org/2000/svg" width="50" height="57" viewBox="0 0 50 57">
    <path fill="#CECA7E" d="M48.692 18.793c-.542-.4-1.255-.486-1.877-.226-2.713 1.19-5.509 2.183-8.366 2.97.606-2.015 1.421-5.907.068-9.338-.228-.57-.725-.991-1.327-1.122-.618-.14-1.264.038-1.724.473-.685.646-1.67 1.542-2.464 2.143-.735-3.548-2.978-11.982-7.98-13.645-.195-.064-.404-.064-.599 0-5.002 1.663-7.245 10.097-7.977 13.64-.86-.67-1.685-1.384-2.47-2.14-.46-.434-1.106-.611-1.723-.472-.602.13-1.1.552-1.327 1.123-1.352 3.43-.538 7.322.076 9.34-2.86-.788-5.657-1.781-8.372-2.972-.622-.26-1.335-.174-1.877.226-.53.387-.813 1.027-.742 1.68.335 3.125 2.966 6.853 4.5 8.8-.402.18-.839.27-1.28.267-.762.023-1.435.496-1.714 1.203-.282.698-.114 1.496.426 2.021 1.65 1.57 3.425 3.006 5.307 4.292-.234.14-.476.267-.724.379-.55.255-.948.753-1.073 1.345-.123.582.042 1.188.442 1.629 2.06 2.197 4.388 4.13 6.93 5.751 2.06 1.395 4.494 2.138 6.983 2.135 1.345-.001 2.682-.205 3.967-.603v8.084c0 .522.424.946.947.946.524 0 .948-.424.948-.946v-8.084c3.693 1.188 7.727.625 10.951-1.528 2.542-1.622 4.87-3.554 6.93-5.752.4-.441.565-1.047.442-1.63-.124-.592-.522-1.092-1.074-1.346-.243-.11-.48-.235-.71-.37 1.871-1.3 3.64-2.739 5.293-4.304.54-.526.708-1.324.426-2.022-.278-.706-.952-1.18-1.713-1.203-.443.004-.882-.088-1.287-.27 1.54-1.944 4.17-5.672 4.506-8.798.07-.65-.212-1.29-.742-1.676zM43.44 28.1c-.349.442-.482 1.016-.364 1.567.118.55.477 1.02.977 1.28.659.317 1.383.479 2.115.472-1.577 1.494-3.265 2.867-5.05 4.107-.52.367-.821.97-.8 1.607.015.625.345 1.2.876 1.532.304.187.62.35.948.491-1.957 2.076-4.163 3.903-6.57 5.439-2.927 1.945-6.617 2.356-9.902 1.102v-8.5c4.732-.229 9.14-2.463 12.115-6.14.839-.998 1.526-2.113 2.042-3.309.17-.485-.08-1.017-.563-1.197-.483-.18-1.022.058-1.213.536-.447 1.005-1.034 1.943-1.742 2.787-2.616 3.23-6.482 5.203-10.639 5.432v-7.974c4.834-.828 9.141-7.616 9.334-7.924.277-.444.141-1.027-.304-1.304-.445-.277-1.03-.141-1.308.302-1.13 1.796-4.525 6.202-7.725 6.986V8.508c0-.522-.425-.945-.948-.945-.524 0-.948.423-.948.945v16.884c-3.2-.784-6.595-5.186-7.726-6.986-.277-.443-.863-.579-1.308-.302-.445.277-.58.86-.303 1.304.19.308 4.5 7.096 9.333 7.924v7.974c-4.154-.23-8.016-2.204-10.63-5.432-.71-.846-1.296-1.785-1.743-2.793-.191-.478-.73-.716-1.213-.536-.482.18-.733.712-.563 1.198.516 1.196 1.203 2.31 2.042 3.309 2.974 3.678 7.382 5.914 12.115 6.144v8.498c-3.287 1.234-6.967.824-9.9-1.103-2.405-1.53-4.607-3.357-6.554-5.437.32-.145.63-.309.93-.493.533-.33.864-.906.88-1.532.021-.636-.28-1.24-.802-1.607-1.78-1.236-3.465-2.605-5.038-4.096.726-.001 1.443-.165 2.097-.48.501-.26.86-.73.978-1.28S6.35 28.541 6 28.1c-.888-1.12-3.806-4.997-4.113-7.792 2.817 1.236 5.722 2.264 8.691 3.076.657.146 1.343-.066 1.802-.557.458-.492.62-1.189.427-1.832-.536-1.781-1.263-5.2-.138-8.072.839.806 1.719 1.567 2.637 2.281.519.388 1.2.483 1.806.255.606-.229 1.053-.75 1.185-1.383.51-2.457 2.444-10.444 6.424-12.12 3.981 1.676 5.914 9.663 6.421 12.12.133.633.58 1.154 1.186 1.382.606.229 1.287.133 1.806-.255.923-.71 1.798-1.482 2.617-2.31 1.144 2.9.417 6.32-.12 8.102-.193.643-.03 1.34.429 1.832.459.492 1.145.703 1.802.557 2.973-.807 5.878-1.847 8.687-3.113-.303 2.832-3.222 6.708-4.11 7.83z"/>
</svg>
