<svg xmlns="http://www.w3.org/2000/svg" width="51" height="23" viewBox="0 0 51 23">
    <g fill="#159048">
        <path d="M49.984.093h-32.92c-.56 0-1.016.448-1.016 1.002v1.89H6.365c-.56 0-1.016.45-1.016 1.003 0 .554.455 1.003 1.016 1.003h9.683v13.018h-5.787c-.561 0-1.016.45-1.016 1.003 0 .554.455 1.002 1.016 1.002h5.787v1.89c0 .555.455 1.003 1.016 1.003h32.92c.561 0 1.016-.448 1.016-1.002V1.095c0-.554-.455-1.002-1.016-1.002zm-2.506 2.005L33.526 13.399 19.637 2.098h27.84zm1.49 18.805H18.08V3.429l14.798 12.042c.188.153.417.23.646.23.229 0 .458-.077.645-.228l14.8-11.989v17.419z"/>
        <path d="M11.92 10.396H1.017c-.561 0-1.016.449-1.016 1.002 0 .554.455 1.003 1.016 1.003H11.92c.56 0 1.015-.449 1.015-1.003 0-.553-.454-1.002-1.015-1.002zM6.908 18.01h-.543c-.56 0-1.015.448-1.015 1.002s.454 1.002 1.015 1.002h.543c.562 0 1.016-.448 1.016-1.002s-.454-1.003-1.016-1.003z"/>
    </g>
</svg>
