<svg xmlns="http://www.w3.org/2000/svg" width="36" height="36" viewBox="0 0 36 36">
    <g fill="#FFF">
        <path d="M35.097 12.005L23.995.902C22.793-.3 20.838-.3 19.635.902L2.31 18.229c-.6.6-.901 1.39-.901 2.18 0 .789.3 1.578.901 2.179l2.786 2.785-3.06 3.06c-.136.137-.205.316-.205.496s.069.36.206.498c.274.274.72.274.994 0l3.06-3.06 1.273 1.275-7.157 7.157c-.137.137-.206.317-.206.497s.069.36.206.497c.275.275.72.275.994 0l7.158-7.157 5.054 5.054c1.201 1.202 3.157 1.202 4.358 0l17.327-17.327c.582-.582.903-1.356.903-2.179 0-.823-.32-1.597-.903-2.18zm-20.017 21.1c-.247-.078-.479-.214-.674-.41L3.303 21.594c-.438-.438-.58-1.06-.431-1.62H15.08v13.132zM12.54 18.567l2.085-2.085c.274-.274.274-.72 0-.994-.275-.275-.72-.275-.995 0l-3.08 3.08H8.502l6.357-6.357c.274-.275.274-.72 0-.995-.275-.274-.72-.274-.995 0l-7.35 7.351H3.958L19.974 2.552v14.34c0 .924-.751 1.675-1.676 1.675h-5.76zm21.564-3.198L16.776 32.696c-.09.09-.187.165-.29.23V19.974h1.812c1.7 0 3.083-1.383 3.083-3.083V15.08h8.06l-4.07 4.07c-.137.137-.206.317-.206.496 0 .18.069.36.206.498.275.274.72.274.995 0l5.062-5.063h2.907c-.066.103-.143.2-.232.29zm-12.722-1.696V1.465c.56-.15 1.181-.007 1.62.431L34.102 13c.192.192.331.423.411.674H21.381z"/>
        <path d="M16.579 9.496c-.13-.132-.312-.206-.497-.206-.186 0-.366.074-.497.206-.131.13-.206.311-.206.497 0 .185.075.366.206.497.13.13.311.206.497.206.185 0 .366-.075.497-.206.13-.13.206-.312.206-.497 0-.186-.075-.367-.206-.497zM1.203 30.259c-.13-.13-.312-.206-.497-.206s-.366.075-.497.206c-.131.13-.206.312-.206.497s.075.366.206.497c.13.131.312.206.497.206.186 0 .366-.075.497-.206.132-.13.206-.312.206-.497s-.074-.366-.206-.497zM8.931 31.605c-.275-.274-.72-.274-.994 0L4.743 34.8c-.137.137-.206.317-.206.497s.069.36.206.497c.275.275.72.275.995 0L8.93 32.6c.274-.275.274-.72 0-.995z"/>
    </g>
</svg>
