<svg xmlns="http://www.w3.org/2000/svg" width="44" height="44" viewBox="0 0 44 44">
    <g fill="#FFF">
        <path d="M33.413 21.394l-16.133-11c-.226-.152-.516-.17-.757-.042-.24.127-.39.376-.39.648v22c0 .272.15.521.391.648.107.057.225.085.343.085.144 0 .289-.043.413-.127l16.133-11c.2-.137.32-.363.32-.606s-.12-.47-.32-.606zM17.6 31.612V12.388L31.698 22 17.6 31.612z"/>
        <path d="M22 0C9.87 0 0 9.87 0 22s9.87 22 22 22 22-9.87 22-22S34.13 0 22 0zm0 42.533C10.678 42.533 1.467 33.322 1.467 22 1.467 10.678 10.678 1.467 22 1.467c11.322 0 20.533 9.211 20.533 20.533 0 11.322-9.211 20.533-20.533 20.533z"/>
    </g>
</svg>
