<svg xmlns="http://www.w3.org/2000/svg" xmlns:xlink="http://www.w3.org/1999/xlink" width="179" height="70" viewBox="0 0 179 70">
    <defs>
        <path id="prefix__a" d="M0.087 0.079L30.163 0.079 30.163 31.772 0.087 31.772z"/>
        <path id="prefix__c" d="M0 69.776L178.832 69.776 178.832 0 0 0z"/>
    </defs>
    <g fill="none" fill-rule="evenodd">
        <path fill="#FEFEFE" d="M85.98 37.838c-.378-4.935-3.964-7.528-9.186-7.528-4.72 0-8.62 2.593-9.627 7.528H85.98zM67.04 43.34c.567 4.744 4.467 7.844 10.13 7.844 3.146 0 7.11-1.202 8.998-3.353l4.215 4.112c-3.209 3.543-8.556 5.314-13.338 5.314-10.193 0-16.737-6.516-16.737-16.511 0-9.488 6.606-16.257 16.296-16.257 10.004 0 16.8 6.135 15.604 18.85H67.04zM98.669 25.312l2.133 4.112c2.265-3.985 5.789-4.808 9.123-4.808 3.02 0 5.915 1.076 7.677 2.657l-2.958 5.693c-1.572-1.265-3.083-1.897-5.473-1.897-4.468 0-8.369 2.783-8.369 8.54v16.89h-6.48V25.312h4.347zM140.583 37.838c-.377-4.935-3.964-7.528-9.186-7.528-4.719 0-8.62 2.593-9.627 7.528h18.813zm-18.938 5.503c.566 4.744 4.467 7.844 10.13 7.844 3.145 0 7.109-1.202 8.997-3.353l4.216 4.112c-3.21 3.543-8.557 5.314-13.34 5.314-10.192 0-16.736-6.516-16.736-16.511 0-9.488 6.606-16.257 16.296-16.257 10.004 0 16.8 6.135 15.605 18.85h-25.168z"/>
        <g transform="translate(148.669 24.727)">
            <mask id="prefix__b" fill="#fff">
                <use xlink:href="#prefix__a"/>
            </mask>
            <path fill="#FEFEFE" d="M23.62 31.772v-16.7c0-5.378-3.021-8.983-8.369-8.983-5.16 0-8.683 4.239-8.683 9.362v16.32H.088V.522h4.277L6.38 5.078C9.336 1.724 12.797.079 16.824.079c7.55 0 13.339 5.377 13.339 14.929v16.764h-6.544z" mask="url(#prefix__b)"/>
        </g>
        <path fill="#FEFEFE" d="M66.842 67.84h1.207c1.053 0 1.048-1.602 0-1.602h-1.207v1.602zm0 .59v1.23h-.637v-4.006c.609 0 1.236-.006 1.844-.006 1.902 0 1.907 2.77 0 2.782h-1.207zM76.79 69.66L73.847 69.66 73.847 65.654 76.773 65.654 76.773 66.278 74.484 66.278 74.484 67.359 76.682 67.359 76.682 67.954 74.484 67.954 74.484 69.031 76.79 69.031zM82.762 67.422L83.896 65.654 84.664 65.654 84.664 65.682 83.081 68.017 83.081 69.66 82.444 69.66 82.444 68.017 80.906 65.682 80.906 65.654 81.663 65.654zM88.759 65.654L91.667 65.654 91.667 65.946 89.476 69.048 91.667 69.048 91.667 69.66 88.576 69.66 88.576 69.299 90.728 66.244 88.759 66.244zM97.789 66.33l-.842 1.905h1.684l-.842-1.906zm1.076 2.489h-2.158l-.375.841h-.678l1.787-4.006h.696l1.787 4.006h-.678l-.38-.841zM107.16 65.654v2.347c0 1.024-.66 1.734-1.706 1.734-.991 0-1.703-.619-1.703-1.7h.627c0 .704.38 1.099 1.076 1.099.693 0 1.069-.47 1.069-1.133v-1.752h-1.28v-.595h1.918zM125.526 66.592L124.172 68.487 124.035 68.487 122.698 66.592 122.698 69.666 122.06 69.666 122.06 65.66 122.8 65.66 124.115 67.537 125.424 65.66 126.164 65.66 126.164 69.666 125.526 69.666z"/>
        <mask id="prefix__d" fill="#fff">
            <use xlink:href="#prefix__c"/>
        </mask>
        <path fill="#FEFEFE" d="M130.902 69.66h.868v-4.006h-.868v4.006zm.899-4.79c0 .486-1 .486-1 0 0-.48 1-.48 1 0zM139.68 66.592L138.326 68.487 138.189 68.487 136.852 66.592 136.852 69.666 136.214 69.666 136.214 65.66 136.954 65.66 138.269 67.537 139.578 65.66 140.318 65.66 140.318 69.666 139.68 69.666zM146.713 66.33l-.843 1.905h1.686l-.843-1.906zm1.077 2.489h-2.158l-.376.841h-.677l1.787-4.006h.695l1.787 4.006h-.677l-.381-.841zM153.747 66.238v1.453h1.212c.53 0 .763-.337.763-.715 0-.36-.233-.738-.758-.738h-1.217zm2.8 3.422h-.745l-1.213-1.385h-.842v1.385h-.638v-4.012c.62 0 1.236.006 1.855.006.923 0 1.407.635 1.407 1.31 0 .573-.296 1.133-1.081 1.248l1.189 1.334.068.114zM161.56 65.654L161.56 69.065 163.659 69.065 163.659 69.66 160.922 69.66 160.922 65.654zM167.969 69.66L168.602 69.66 168.602 65.654 167.969 65.654zM176.361 65.677L174.534 67.588 176.52 69.62 176.52 69.66 175.723 69.66 173.948 67.834 173.948 69.66 173.31 69.66 173.31 65.654 173.948 65.654 173.948 67.382 175.57 65.654 176.361 65.654zM49.63 64.823c-2.837-.043-12.187-.166-14.695.076-.329.032-.614-.227-.614-.559V24.795c0-.625.864-.783 1.083-.198L50.16 64.063c.139.371-.137.766-.531.76m7.808 2.864l-3.08-7.87-1.84.697c-.26.098-.553-.036-.652-.297l-.03-.08c-.097-.262.035-.556.296-.655l1.825-.69-3.292-8.412-1.808.684c-.26.1-.554-.035-.652-.296l-.03-.08c-.098-.262.035-.557.296-.655l1.793-.678-3.292-8.412-1.776.673c-.261.098-.554-.035-.652-.297l-.03-.08c-.098-.262.035-.556.295-.655l1.762-.667-3.292-8.41-1.744.66c-.261.098-.554-.035-.652-.297l-.03-.08c-.098-.261.035-.556.295-.655l1.73-.654-3.292-8.412-1.713.649c-.26.098-.553-.035-.652-.297l-.03-.08c-.097-.261.035-.556.296-.655l1.698-.642-3.292-8.412-1.681.637c-.26.099-.553-.035-.652-.297l-.03-.08c-.097-.261.035-.556.296-.655l1.666-.63L31.22.687C30.972.263 30.52 0 30.028 0h-.663v69.372c0 .217.172.399.388.399h26.493c1.064 0 1.727-1.16 1.192-2.084" mask="url(#prefix__d)"/>
        <path fill="#FEFEFE" d="M37.45 61.537v-21.09c0-.334.46-.419.577-.106l7.87 21.048c.075.198-.073.409-.283.405-1.512-.023-6.5-.088-7.837.041-.175.017-.327-.12-.327-.298" mask="url(#prefix__d)"/>
        <path fill="#179D4E" d="M27.459 69.776L27.459 0.214 20.269 11.031 23.361 11.031 16.834 17.4 20.612 17.4 15.116 23.849 18.551 23.849 13.742 31.32 16.146 31.32 9.963 39.813 13.742 39.813 7.557 46.419 10.306 46.419 5.84 53.261 8.932 53.261 3.435 61.911 5.84 61.911 0 69.776z" mask="url(#prefix__d)"/>
    </g>
</svg>
