<svg xmlns="http://www.w3.org/2000/svg" xmlns:xlink="http://www.w3.org/1999/xlink" width="140" height="54" viewBox="0 0 140 54">
    <defs>
        <path id="prefix__a" d="M0 0.174L37.517 0.174 37.517 38.819 0 38.819z"/>
        <path id="prefix__c" d="M0 54L140 54 140 0.701 0 0.701z"/>
    </defs>
    <g fill="none" fill-rule="evenodd">
        <mask id="prefix__b" fill="#fff">
            <use xlink:href="#prefix__a"/>
        </mask>
        <path fill="#4A505E" d="M30.063 15.915c-.442-5.82-4.642-8.88-10.758-8.88-5.526 0-10.096 3.06-11.274 8.88h22.032zm-22.18 6.491c.663 5.595 5.233 9.25 11.864 9.25 3.686 0 8.327-1.417 10.537-3.954l4.938 4.85c-3.76 4.177-10.022 6.267-15.621 6.267-11.938 0-19.602-7.685-19.602-19.474C0 8.156 7.736.174 19.084.174c11.715 0 19.673 7.235 18.274 22.232H7.884z" mask="url(#prefix__b)"/>
        <path fill="#4A505E" d="M44.999 1.527L47.5 6.411c2.657-4.733 6.786-5.71 10.697-5.71 3.541 0 6.935 1.279 9.002 3.156l-3.468 6.763c-1.843-1.503-3.615-2.255-6.42-2.255-5.237 0-9.811 3.307-9.811 10.145V38.57H39.9V1.527h5.099zM94.69 16.413c-.446-5.81-4.677-8.862-10.84-8.862-5.567 0-10.17 3.053-11.358 8.862H94.69zM72.343 22.89c.668 5.584 5.27 9.233 11.953 9.233 3.712 0 8.39-1.414 10.616-3.946l4.975 4.84C96.1 37.186 89.79 39.272 84.15 39.272c-12.028 0-19.749-7.67-19.749-19.437C64.4 8.67 72.195.701 83.628.701c11.804 0 19.821 7.222 18.411 22.19H72.343zM132.233 37.87V18.285c0-6.307-3.586-10.536-9.933-10.536-6.125 0-10.307 4.972-10.307 10.98V37.87H104.3V1.22h5.078l2.39 5.343c3.51-3.932 7.619-5.862 12.399-5.862C133.128.701 140 7.008 140 18.211v19.66h-7.767zM7.818 51.772h1.548c1.352 0 1.345-1.96 0-1.96H7.818v1.96zm0 .721V54H7v-4.902c.781 0 1.585-.007 2.366-.007 2.442 0 2.449 3.388 0 3.402H7.818zM19.6 54L16.1 54 16.1 49.091 19.58 49.091 19.58 49.855 16.858 49.855 16.858 51.181 19.471 51.181 19.471 51.91 16.858 51.91 16.858 53.229 19.6 53.229zM26.574 51.257L27.841 49.091 28.7 49.091 28.7 49.124 26.93 51.987 26.93 54 26.217 54 26.217 51.987 24.5 49.124 24.5 49.091 25.345 49.091zM33.806 49.091L37.1 49.091 37.1 49.448 34.618 53.248 37.1 53.248 37.1 54 33.6 54 33.6 53.558 36.036 49.813 33.806 49.813zM44.45 49.918l-.966 2.335h1.932l-.966-2.335zm1.235 3.05h-2.476L42.777 54H42l2.052-4.91h.796L46.9 54h-.777l-.438-1.032zM55.3 49.09v2.825c0 1.233-.813 2.085-2.102 2.085-1.221 0-2.098-.744-2.098-2.044h.773c0 .846.468 1.321 1.325 1.321.854 0 1.317-.563 1.317-1.362v-2.108h-1.577v-.716H55.3zM76.939 50.234L75.323 52.554 75.159 52.554 73.561 50.234 73.561 54 72.8 54 72.8 49.091 73.684 49.091 75.254 51.391 76.818 49.091 77.7 49.091 77.7 54 76.939 54z"/>
        <mask id="prefix__d" fill="#fff">
            <use xlink:href="#prefix__c"/>
        </mask>
        <path fill="#4A505E" d="M83.402 54h.869v-4.908h-.869V54zm.898-5.87c0 .596-1 .596-1 0 0-.59 1-.59 1 0zM93.739 50.234L92.123 52.554 91.959 52.554 90.361 50.234 90.361 54 89.6 54 89.6 49.091 90.484 49.091 92.054 51.391 93.618 49.091 94.5 49.091 94.5 54 93.739 54zM101.85 49.918l-.968 2.335h1.936l-.968-2.335zm1.236 3.05h-2.478L100.176 54H99.4l2.051-4.91h.798L104.3 54h-.776l-.438-1.032zM109.979 49.814v1.777h1.48c.649 0 .933-.413.933-.874 0-.441-.284-.903-.925-.903h-1.488zM113.4 54h-.912l-1.48-1.695h-1.03V54h-.778v-4.91c.756 0 1.509.01 2.267.01 1.126 0 1.718.777 1.718 1.601 0 .702-.361 1.388-1.322 1.528l1.453 1.632.084.139zM119.115 49.091L119.115 53.271 121.8 53.271 121.8 54 118.3 54 118.3 49.091zM127.091 54L127.709 54 127.709 49.091 127.091 49.091zM137.027 49.119L135.035 51.461 137.2 53.951 137.2 54 136.332 54 134.397 51.762 134.397 54 133.7 54 133.7 49.091 134.397 49.091 134.397 51.209 136.164 49.091 137.027 49.091z" mask="url(#prefix__d)"/>
    </g>
</svg>
