<svg xmlns="http://www.w3.org/2000/svg" xmlns:xlink="http://www.w3.org/1999/xlink" width="46" height="54" viewBox="0 0 46 54">
    <defs>
        <path id="prefix__a" d="M0 0.35L21.85 0.35 21.85 54 0 54z"/>
        <path id="prefix__c" d="M0.764 0.35L22.613 0.35 22.613 54 0.764 54z"/>
    </defs>
    <g fill="none" fill-rule="evenodd">
        <g transform="translate(0 -1) translate(0 .65)">
            <mask id="prefix__b" fill="#fff">
                <use xlink:href="#prefix__a"/>
            </mask>
            <path fill="#737987" d="M21.85.35v53.344c0 .166-.134.305-.3.306H1.068c-.822 0-1.335-.892-.921-1.603l4.766-8.175h-.585c-.824 0-1.335-.893-.921-1.603l4.765-8.175h-.585c-.823 0-1.336-.892-.922-1.603l4.767-8.176h-.586c-.822 0-1.335-.892-.921-1.603l4.767-8.175h-.586c-.823 0-1.335-.892-.921-1.603L20.415.879c.193-.328.543-.53.922-.53h.513z" mask="url(#prefix__b)"/>
        </g>
        <g transform="translate(0 -1) translate(23 .65)">
            <mask id="prefix__d" fill="#fff">
                <use xlink:href="#prefix__c"/>
            </mask>
            <path fill="#737987" d="M16.43 50.196c-2.192-.034-9.421-.128-11.36.059-.254.024-.475-.175-.475-.43v-30.41c0-.48.668-.601.838-.151L16.84 49.612c.108.285-.106.588-.411.584m6.037 2.202l-2.381-6.052-1.423.536c-.201.076-.427-.027-.504-.228l-.022-.062c-.076-.201.026-.427.228-.503l1.41-.531-2.544-6.468-1.398.526c-.202.076-.428-.027-.504-.228l-.023-.061c-.075-.201.027-.428.228-.504l1.386-.522-2.544-6.467-1.374.517c-.201.075-.427-.028-.504-.23l-.022-.06c-.076-.201.026-.428.228-.504l1.362-.512-2.545-6.468-1.35.508c-.2.076-.427-.027-.503-.228l-.023-.061c-.075-.202.027-.43.228-.504l1.338-.504-2.546-6.467-1.324.498c-.201.076-.428-.027-.504-.228l-.022-.062c-.076-.2.026-.427.228-.503l1.313-.495-2.545-6.467-1.3.489c-.201.076-.428-.026-.504-.228l-.022-.061c-.076-.201.026-.428.227-.504L5.5 9.275 2.198.879c-.192-.328-.542-.53-.921-.53H.764v53.345c0 .167.133.306.3.306h20.482c.822 0 1.335-.892.92-1.602" mask="url(#prefix__d)"/>
        </g>
        <path fill="#737987" d="M30.014 48.319V32.1c0-.257.356-.321.446-.081l6.085 16.185c.058.153-.056.314-.22.312-1.168-.018-5.024-.068-6.058.03-.135.014-.253-.092-.253-.228" transform="translate(0 -1)"/>
    </g>
</svg>
