<svg xmlns="http://www.w3.org/2000/svg" xmlns:xlink="http://www.w3.org/1999/xlink" width="242" height="126" viewBox="0 0 242 126">
    <defs>
        <path id="prefix__a" d="M0.451 0.317L40.048 0.317 40.048 76 0.451 76z"/>
    </defs>
    <g fill="none" fill-rule="evenodd">
        <g>
            <g transform="translate(61.561) translate(.852 49.194)">
                <mask id="prefix__b" fill="#fff">
                    <use xlink:href="#prefix__a"/>
                </mask>
                <path fill="#9C9186" d="M13.856 66.247c2.374-5.474 4.028-10.661 4.97-15.561.136-.364.196-.676.171-.935-.042-.434-.25-.766-.621-.994-3.13 2.135-6.058 5.037-8.783 8.708-2.721 3.668-4.505 7.032-5.355 10.087-.337 1.082-.467 2.013-.393 2.79.14 1.477.983 2.446 2.518 2.912 3.178-.739 5.674-3.073 7.493-7.007M1.605 73.05C.969 71.973.604 70.825.485 69.61c-.148-1.557.19-3.517 1.018-5.866 1.496-3.643 3.63-7.038 6.405-10.188 3.884-4.39 7.462-8.232 10.749-11.519 2.493-2.334 4.206-5.075 5.14-8.228.316-1.253.755-2.632 1.317-4.127.558-1.498.934-2.6 1.13-3.321.573-1.369.64-2.51.201-3.43.077-.095.246-.154.506-.182l-.046-.518-.46.7c-.976-.084-2.128.29-3.445 1.113-.656.5-1.24.84-1.752 1.018-.506.179-1.032.165-1.584-.045-1.162-.242-2.06-.662-2.682-1.257-.633-.595-1.16-1.354-1.605-2.275.063-.27.06-.574-.018-.917-.08-.34-.088-.693-.035-1.05.4-2.219 1.029-4.357 1.89-6.408.86-2.051 1.98-4.54 3.37-7.473.064-.27.387-.514.977-.749l.266-.024c.432-.042.776.126 1.033.493.253.368.435.637.537.802-.13 1.414-.523 2.828-1.173 4.245-.66 1.418-1.015 2.261-1.081 2.53-.797 1.74-1.366 3.126-1.703 4.166-.345 1.036-.506 2.12-.481 3.258.691.809 1.408.963 2.149.452 2.545-1.813 4.631-3.413 6.257-4.792 2.851-2.278 4.955-5.106 6.303-8.47.151-.276.432-.959.857-2.051.425-1.088.92-2.075 1.496-2.961.572-.885 1.222-1.624 1.96-2.219.354.053 1.042.382 2.067.984-.35 1.869-1.267 4.186-2.76 6.954l-1.316 2.748c-2.142 5.19-3.382 8.284-3.726 9.275l-.934 2.583c-1.296 3.01-2.023 5.488-2.188 7.427.176.07.316.164.422.287.094.122.19.178.277.171.853-.255 1.626-.658 2.321-1.204.692-.546 1.082-.868 1.159-.966 1.292-1.169 2.535-1.942 3.73-2.317.603-.06 1.095.025 1.47.249.37.23.678.686.92 1.361-.621.847-1.38 1.638-2.272 2.377-.898.742-1.467 1.214-1.713 1.41-.664.413-1.56 1.113-2.693 2.093l-6.163 5.831c-.976 1.67-1.731 3.469-2.247 5.4l-1.068 3.973c-2.317 7.914-4 13.325-5.039 16.223-.6 1.98-1.626 4.091-3.083 6.328-1.843 2.709-4.161 4.2-6.942 4.466-2.35.22-4.551-.753-6.598-2.92" mask="url(#prefix__b)"/>
            </g>
            <path fill="#9C9186" d="M41.137 73.698c-.467-.304-.948-1.176-1.432-2.621.252-5.618 2.06-11.96 5.421-19.016.871-.084 1.317-.077 1.324.007l1.334 1.579c-.231 1.25-.842 3.143-1.829 5.687-.776 1.999-1.373 3.801-1.787 5.418-.418 1.614-.59 3.29-.506 5.033 1.647-1.12 3.455-2.863 5.425-5.24.952-1.05 1.95-2.064 3.003-3.04 1.042-.97 2.106-1.814 3.174-2.531l1.78 2.061c-4.53 5.856-8.666 10.318-12.416 13.384-1.858-.175-3.02-.416-3.49-.72" transform="translate(61.561)"/>
            <path fill="#9C9186" d="M52.303 76.183c-.11-.252-.197-.679-.253-1.288.084-5.52 1.11-11.343 3.072-17.482C61.7 37.106 69.147 19.998 77.48 6.085c.063-.178.33-.686.776-1.515.45-.83 1.05-1.414 1.805-1.747l.26-.024c.87-.084 1.622.458 2.265 1.62l-3.248 5.95-2.578 4.708c-2.11 3.7-3.596 6.51-4.47 8.428-3.452 7.938-6.18 14.343-8.171 19.211-1.991 4.872-3.747 9.916-5.27 15.13-1.62 5.139-2.687 10.014-3.217 14.61l.024.259c.053.521.495 1.004 1.327 1.452 1.57-1.025 3.8-2.943 6.69-5.754 2.707-2.88 5.018-4.893 6.931-6.037 1.071.16 1.721.584 1.963 1.26.057.605 0 .959-.165 1.064-4.003 4.053-8.259 8.176-12.77 12.362-.32.381-1.184.99-2.596 1.823-2.43.319-4.006-.584-4.733-2.702" transform="translate(61.561)"/>
            <path fill="#9C9186" d="M69.915 74.515c-.109-.252-.197-.679-.253-1.291.084-5.517 1.11-11.344 3.073-17.48C79.312 35.439 86.759 18.33 95.089 4.418c.066-.182.333-.69.78-1.515.449-.834 1.05-1.415 1.804-1.747l.26-.028c.87-.08 1.622.462 2.265 1.624l-3.248 5.95-2.581 4.707c-2.107 3.7-3.593 6.507-4.467 8.429-3.452 7.938-6.18 14.342-8.171 19.211-1.991 4.868-3.75 9.916-5.27 15.13-1.62 5.139-2.687 10.01-3.217 14.61l.024.258c.053.522.495 1.005 1.328 1.45 1.566-1.022 3.799-2.94 6.689-5.751 2.707-2.88 5.018-4.893 6.928-6.038 1.075.161 1.724.581 1.967 1.26.056.606 0 .96-.165 1.065-4.004 4.049-8.26 8.175-12.775 12.362-.316.381-1.18.99-2.592 1.82-2.43.322-4.006-.582-4.733-2.699" transform="translate(61.561)"/>
            <path fill="#9C9186" d="M89.804 69.086c-.467-.301-.948-1.176-1.433-2.618.253-5.621 2.062-11.963 5.422-19.02.871-.08 1.317-.076 1.324.008l1.334 1.578c-.231 1.25-.842 3.143-1.83 5.688-.775 1.998-1.372 3.804-1.786 5.418-.418 1.613-.59 3.293-.506 5.033 1.647-1.117 3.455-2.863 5.425-5.236.952-1.054 1.949-2.069 3.002-3.042 1.043-.973 2.107-1.816 3.175-2.534l1.78 2.062c-4.53 5.859-8.666 10.318-12.416 13.384-1.858-.175-3.02-.417-3.49-.721" transform="translate(61.561)"/>
            <path fill="#9C9186" d="M113.198 61.754c.867-.084 1.612-.591 2.226-1.526 2.778-4.021 4.822-8.767 6.149-14.227.077-.095.109-.228.091-.403-.024-.262-.091-.518-.204-.77-.115-.248-.182-.507-.207-.766-.94.266-1.685.728-2.24 1.393-.548.665-1.032 1.365-1.44 2.103-.414.742-.691 1.246-.842 1.523-1.62 3.304-3.242 6.961-4.881 10.962-.078.094-.106.23-.088.402l.235 1.159c.544.126.941.175 1.201.15m1.577 11.004c-.51-.738-.938-2.012-1.29-3.815-.206-1.291-.48-2.338-.82-3.14-.341-.797-.98-1.5-1.915-2.113-.709.854-1.362 1.858-1.952 3.006-.593 1.152-1.145 2.275-1.65 3.37-1.008 2.374-1.9 4.033-2.687 4.981-.165.105-.417.172-.769.203-.87.084-1.562-.287-2.078-1.113-.334-.668-.527-1.35-.594-2.044-.067-.696 0-1.84.2-3.43 1.31-12.022 4.14-23.75 8.495-35.189 3.346-9.065 7.384-18.68 12.128-28.836.14-.273.358-.777.646-1.505.278-.728.636-1.351 1.068-1.873.432-.521.944-.941 1.527-1.26l1.531.903c.113.256.186.553.218.9.035.346-.018.724-.154 1.127-.137.41-.243.707-.31.885-5.846 12.366-10.464 23.3-13.852 32.806-2.444 6.618-4.274 12.74-5.492 18.368-.165 1.067-.228 1.729-.204 1.988.056.609.288 1.2.695 1.77 1.096-1.326 2.005-2.855 2.718-4.588.717-1.729 1.177-2.866 1.39-3.412 1.669-3.654 3.414-6.493 5.243-8.502 1.42-1.708 2.894-2.81 4.428-3.307 1.31-.035 2.497.465 3.561 1.501.537.998.85 1.978.941 2.93.14 1.473-.144 3.118-.846 4.935-1.303 3.797-2.581 7.024-3.817 9.68-1.243 2.654-2.813 5.034-4.716 7.137l.154 3.003c.159 1.649.717 2.905 1.675 3.777 1.848-.872 3.094-1.582 3.747-2.125.65-.539 1.749-1.935 3.29-4.182 1.546-2.16 3.249-4.592 5.096-7.308.252-.109.593-.186 1.032-.228.52-.049.966.063 1.345.333.38.273.723.696 1.046 1.277-.78 1.04-1.85 2.67-3.22 4.9-1.913 2.982-3.574 5.303-5 6.969-1.415 1.666-3.22 2.996-5.411 3.99-2.465-.116-4.267-1.04-5.397-2.769" transform="translate(61.561)"/>
            <path fill="#888B94" fill-rule="nonzero" d="M59.533 86.159l-.352 2.948-5.233.274-1.941 15.818-3.055.16 1.941-15.817-5.26.275.352-2.948 13.548-.71zm7.459 4.59c1.983-.104 3.564.497 4.742 1.802 1.179 1.306 1.633 2.942 1.363 4.91-.126.646-.211 1.05-.256 1.212l-10.572.554c.071 1.026.448 1.788 1.132 2.285.683.497 1.555.717 2.618.662 1.576-.083 2.795-.706 3.658-1.87l2.182 1.484c-1.358 1.882-3.338 2.892-5.941 3.028-2.143.112-3.818-.501-5.024-1.841-1.207-1.34-1.696-3.037-1.466-5.09.234-1.966 1.062-3.621 2.483-4.965 1.422-1.345 3.115-2.068 5.08-2.171zm-4.449 6.093l7.783-.408c-.04-1.099-.37-1.898-.991-2.398-.621-.5-1.419-.725-2.393-.674-1.045.055-1.955.39-2.73 1.009-.776.617-1.332 1.441-1.669 2.471zm18.728 7.17c-2.018.105-3.64-.52-4.866-1.877-1.225-1.356-1.722-3.052-1.492-5.089.235-1.966 1.067-3.616 2.498-4.952 1.43-1.336 3.146-2.056 5.147-2.16 1.346-.071 2.518.178 3.515.747.998.57 1.728 1.375 2.191 2.416l-2.507 1.463c-.582-1.284-1.688-1.883-3.317-1.797-1.187.062-2.22.498-3.101 1.308-.881.81-1.396 1.822-1.546 3.037-.131 1.215.143 2.213.823 2.994.68.78 1.614 1.14 2.8 1.078.78-.04 1.491-.264 2.136-.671.644-.407 1.163-.94 1.554-1.6l2.39 1.367c-.616 1.133-1.475 2.021-2.578 2.665-1.103.644-2.318 1-3.647 1.07zm12.247-12.31c.982-1.596 2.44-2.418 4.373-2.466l-.395 3.137c-.64-.02-1.257.075-1.85.284-.593.208-1.145.601-1.656 1.179-.512.577-.842 1.296-.993 2.156l-.88 7.105-2.868.15 1.642-13.404 2.868-.15-.24 2.01zm10.948-4.569c-.338.32-.729.491-1.171.515-.443.023-.8-.114-1.074-.41-.273-.297-.386-.668-.338-1.115.048-.446.25-.834.605-1.163.356-.33.755-.506 1.197-.53.443-.022.801.114 1.074.41.273.297.377.669.312 1.116-.066.448-.267.84-.605 1.177zm5.047-.264c-.338.32-.729.491-1.171.514-.443.023-.8-.113-1.074-.41-.273-.296-.386-.668-.338-1.114.048-.446.25-.834.605-1.164.356-.33.755-.505 1.198-.529.442-.023.8.114 1.073.41.273.297.377.669.312 1.116-.066.447-.267.84-.605 1.177zm-.612 2.03l2.868-.15-1.641 13.404-2.869.15.209-1.609c-1.048 1.351-2.458 2.073-4.228 2.166-1.523.08-2.714-.35-3.57-1.291-.858-.94-1.19-2.26-.994-3.957l1.007-8.23 2.869-.15-.97 7.935c-.123 1.018.045 1.778.506 2.277.462.5 1.161.725 2.1.676.956-.05 1.782-.382 2.478-.996.696-.613 1.138-1.51 1.324-2.693l.91-7.532zm13.635-1.061c1.877-.098 3.38.529 4.507 1.881 1.128 1.353 1.583 3.012 1.366 4.976-.218 1.93-.992 3.59-2.322 4.983-1.33 1.393-2.987 2.141-4.97 2.245-2.054.108-3.56-.648-4.514-2.267l-.26 2.171-2.868.15 2.293-18.765 2.869-.15-.88 7.104c1.256-1.45 2.849-2.227 4.78-2.328zm2.992 6.769c.147-1.251-.122-2.245-.809-2.981-.687-.737-1.632-1.073-2.836-1.01-1.205.063-2.255.517-3.152 1.364-.897.846-1.419 1.894-1.566 3.145-.148 1.25.131 2.257.837 3.02.706.761 1.652 1.111 2.839 1.049 1.222-.064 2.272-.527 3.15-1.39.878-.863 1.39-1.929 1.537-3.197zm12.362-7.574c1.983-.104 3.564.497 4.742 1.803 1.179 1.305 1.633 2.942 1.363 4.91-.126.645-.211 1.05-.256 1.211l-10.572.554c.071 1.027.449 1.788 1.132 2.285.683.497 1.556.718 2.618.662 1.576-.083 2.795-.706 3.658-1.87l2.182 1.484c-1.358 1.883-3.338 2.892-5.941 3.028-2.143.113-3.818-.501-5.024-1.84-1.207-1.34-1.696-3.037-1.466-5.091.235-1.966 1.062-3.62 2.484-4.965 1.42-1.344 3.114-2.068 5.08-2.17zm-4.449 6.093l7.783-.407c-.04-1.1-.37-1.899-.991-2.4-.621-.5-1.419-.724-2.393-.673-1.044.055-1.955.391-2.73 1.009-.776.618-1.332 1.442-1.669 2.471zm22.716-6.704l3.188-.167-6.8 14.1c-1.678 3.552-4.036 5.309-7.075 5.273l.338-2.708c.87.007 1.587-.208 2.15-.646.563-.438 1.086-1.14 1.568-2.106l.22-.385-3.949-12.818 2.949-.154 2.795 9.629 4.616-10.018zm3.38 13.141l1.003-8.283 1.38-11.286 2.869-.15-1.402 11.367-.982 8.202-2.869.15zm13.868-14.391c1.984-.104 3.565.497 4.743 1.802 1.178 1.306 1.632 2.943 1.363 4.91-.126.646-.212 1.05-.256 1.212l-10.573.554c.072 1.026.45 1.788 1.132 2.285.683.497 1.556.717 2.619.662 1.576-.083 2.795-.706 3.657-1.87l2.182 1.484c-1.357 1.882-3.337 2.892-5.94 3.028-2.143.112-3.818-.501-5.025-1.84-1.207-1.34-1.695-3.037-1.465-5.092.234-1.965 1.062-3.62 2.483-4.964 1.421-1.344 3.115-2.068 5.08-2.171zm-4.448 6.093l7.783-.408c-.04-1.099-.37-1.898-.992-2.398-.62-.5-1.418-.725-2.392-.674-1.045.055-1.955.391-2.73 1.009-.776.618-1.333 1.441-1.67 2.471z" transform="translate(61.561)"/>
        </g>
        <path fill="#9C9186" fill-rule="nonzero" d="M6.46 88.457c.242.122.636.182 1.18.182.545 0 .636.303.273.908-.484.848-1.09 1.271-1.816 1.271-.606 0-.969-.181-1.09-.544l-.363-1.09c-.363-2.543-.09-5.69.817-9.444.908-3.753 2.27-8.051 4.086-12.894 1.816-4.843 3.996-10.17 6.538-15.981 2.543-5.812 5.267-12.047 8.173-18.706.484-.969.726-1.604.726-1.907 0-.303-.363.03-1.09.999-.605.726-1.876 2.3-3.813 4.722-1.938 2.421-4.056 4.964-6.357 7.627-2.3 2.664-4.51 5.025-6.628 7.083-2.12 2.058-3.723 3.087-4.813 3.087-.847.121-1.453-.03-1.816-.454-.363-.423-.515-.908-.454-1.453.06-.544.303-1.029.726-1.452.424-.424.939-.575 1.544-.454.605.12 1.725-.606 3.36-2.18 1.634-1.574 3.51-3.602 5.63-6.084 2.118-2.482 4.328-5.175 6.628-8.081 2.3-2.906 4.42-5.66 6.357-8.263 1.937-2.603 3.632-4.904 5.085-6.901 1.453-1.998 2.36-3.24 2.724-3.723 2.058-2.543 3.48-3.542 4.268-2.997.787.545.877 1.483.272 2.815-.969 2.058-2.3 5.024-3.995 8.899-1.695 3.874-3.602 8.202-5.721 12.985-2.119 4.782-4.328 9.807-6.629 15.073-2.3 5.267-4.419 10.291-6.356 15.074-1.937 4.782-3.572 9.11-4.903 12.985-1.332 3.874-2.18 6.84-2.543 8.898zm39.772-39.045c2.664-1.09 5.176-1.695 7.537-1.816 2.36-.121 4.389.272 6.084 1.18 1.695.908 2.966 2.3 3.814 4.177.847 1.877 1.15 4.207.908 6.992-.364 3.269-1.574 6.72-3.633 10.352-2.058 3.632-4.54 6.931-7.445 9.897-2.906 2.967-5.933 5.418-9.08 7.355-3.149 1.938-5.933 2.846-8.355 2.725-2.785-.243-4.48-1.756-5.085-4.54-.12-.485-.03-.757.273-.818.302-.06.575.03.817.273.242.484.575 1.12.999 1.906.423.787 1.422 1.12 2.996 1 1.937-.122 4.328-1.15 7.174-3.088 2.845-1.937 5.6-4.359 8.263-7.264 2.663-2.906 4.934-6.084 6.81-9.535 1.877-3.45 2.876-6.628 2.997-9.534.12-2.664-.303-4.57-1.272-5.72-.968-1.151-2.21-1.817-3.723-1.999-1.513-.181-3.178 0-4.994.545-1.816.545-3.541 1.18-5.176 1.907-1.634.727-2.996 1.392-4.086 1.998l-1.634.908c-1.211 0-1.816-.666-1.816-1.998 0-.726.484-2.058 1.453-3.995.968-1.937 2.179-4.177 3.632-6.72 1.453-2.542 3.057-5.266 4.812-8.172 1.756-2.906 3.33-5.63 4.722-8.172 1.392-2.543 2.543-4.813 3.45-6.81.909-1.998 1.302-3.421 1.181-4.268-.242-1.211.303-1.938 1.635-2.18 3.632-.484 6.628-.878 8.99-1.18 2.36-.303 4.57-.394 6.628-.273.847 0 1.876.121 3.087.364 1.21.242 2.391.544 3.542.908 1.15.363 2.118.847 2.905 1.452.787.606 1.18 1.332 1.18 2.18 0 .605-.18 1.09-.544 1.453-.363.363-.666.484-.908.363s-.363-.333-.363-.636c0-.302-.03-.575-.091-.817-.06-.242-.182-.515-.363-.817-.182-.303-.636-.515-1.362-.636-.848-.121-1.756-.212-2.725-.272-.968-.06-2.179-.06-3.632 0-1.453.06-3.208.212-5.266.454-2.059.242-4.662.605-7.81 1.09-.968 0-1.513.423-1.634 1.27-1.816 4.844-4.086 9.565-6.81 14.166-2.724 4.6-5.66 9.625-8.808 15.074-.606 1.21-.787 1.785-.545 1.725.242-.06.666-.212 1.271-.454z"/>
    </g>
</svg>
